# xmcd
# 
# Track frame offsets:
#     150
#     20339
#     37889
#     51242
#     71607
#     87681
#     101088
#     116191
#     132549
#     149803
#     166097
#     186996
#     206092
# 
# Disc length: 2952
# 
# Revision: 1
# Processed by: cddbd v1.5.2PL0 Copyright (c) Steve Scherf et al.
# Submitted via: fre:ac v1.0.27
# 
DISCID=ca0b860d
DTITLE=Donna Beasley - Good Samaritan
DYEAR=2007
DGENRE=Country
TTITLE0=Good Samaritan
TTITLE1=Cotton
TTITLE2=No One Here By That Name
TTITLE3=Love My Way
TTITLE4=No Yesterday
TTITLE5=I'm So Glad I Let You Love Me
TTITLE6=Run the Roads
TTITLE7=We Live For Love
TTITLE8=There's A Reason
TTITLE9=After Dark
TTITLE10=City of Devils
TTITLE11=Tying Knots in the Air
TTITLE12=Rise Above
EXTD=
EXTT0=
EXTT1=
EXTT2=
EXTT3=
EXTT4=
EXTT5=
EXTT6=
EXTT7=
EXTT8=
EXTT9=
EXTT10=
EXTT11=
EXTT12=
PLAYORDER=
